<svg width="258" height="75" viewBox="0 0 258 75" fill="none" xmlns="http://www.w3.org/2000/svg">
<path d="M29.2455 11.0395C23.3254 8.48295 19.7733 7.43711 16.3396 7.43711C12.6691 7.43711 10.3011 8.71536 10.3011 10.6908C10.3011 16.7335 31.0216 14.9904 31.0216 28.935C31.0216 36.6045 24.5094 41.0203 15.3924 41.0203C8.28821 41.0203 4.73613 39.161 0.710425 37.1855V28.5864C6.51217 32.4211 10.1826 33.6994 14.682 33.6994C18.5893 33.6994 20.7205 32.3049 20.7205 29.9808C20.7205 23.4734 0 25.7975 0 11.5043C0 4.64819 6.03856 0 15.5108 0C20.1285 0 24.1542 0.929638 29.3639 3.13753V11.0395" fill="#555555"/>
<path d="M58.3725 39.2769C54.9389 40.5552 51.9788 41.1362 49.0187 41.1362C39.3097 41.1362 33.0343 35.5584 33.0343 27.1916C33.0343 18.9411 39.5465 13.1309 48.6635 13.1309C51.5052 13.1309 55.0573 13.8281 57.8989 14.8739V21.149C55.6493 19.9869 53.0444 19.2897 50.7947 19.2897C45.585 19.2897 42.2697 22.311 42.2697 27.0754C42.2697 31.8398 45.585 34.9774 50.5579 34.9774C52.6892 34.9774 54.4653 34.5125 58.3725 33.1181V39.2769Z" fill="#555555"/>
<path d="M133.795 24.0541C134.15 20.3356 136.4 18.1277 139.715 18.1277C143.031 18.1277 145.28 20.3356 145.636 24.0541H133.795ZM139.242 13.1309C130.717 13.1309 124.678 19.0573 124.678 27.3078C124.678 35.6746 130.954 41.1362 140.663 41.1362C142.794 41.1362 148.004 41.1362 152.977 37.5339V32.3047C148.951 35.0936 146.228 36.1394 142.794 36.1394C137.347 36.1394 134.032 33.3505 133.677 28.5861H153.45C153.805 18.7087 147.175 13.1309 139.242 13.1309Z" fill="#555555"/>
<path d="M156.765 40.6719H165.409V13.5962H156.765V40.6719Z" fill="#555555"/>
<path d="M189.445 33.2346C187.669 34.8615 186.129 35.4425 184.353 35.4425C180.328 35.4425 177.723 32.1888 177.723 27.192C177.723 21.8465 180.328 18.709 184.709 18.709C186.248 18.709 188.261 19.4062 189.563 20.3359V33.2346H189.445ZM189.445 0.697266V14.758C187.077 13.596 184.827 13.015 182.222 13.015C174.289 13.015 168.843 18.709 168.843 26.9595C168.843 35.0939 174.289 41.0203 181.749 41.0203C184.709 41.0203 186.958 40.2069 189.445 38.3476V40.6717H198.088V0.697266H189.445Z" fill="#555555"/>
<path d="M210.876 24.0541C211.231 20.3356 213.481 18.1277 216.796 18.1277C220.111 18.1277 222.479 20.3356 222.834 24.0541H210.876ZM216.204 13.1309C207.679 13.1309 201.64 19.0573 201.64 27.3078C201.64 35.6746 207.916 41.1362 217.625 41.1362C219.756 41.1362 224.966 41.1362 229.939 37.5339V32.3047C225.913 35.0936 223.19 36.1394 219.756 36.1394C214.309 36.1394 210.994 33.3505 210.639 28.5861H230.412C230.886 18.7087 224.255 13.1309 216.204 13.1309Z" fill="#555555"/>
<path d="M243.436 21.3814H243.555C246.16 15.8036 249.001 13.1309 252.317 13.1309C254.093 13.1309 255.514 13.8281 258 15.5712L255.632 23.1245C253.382 21.73 251.843 21.149 250.541 21.149C247.344 21.149 245.331 24.0541 243.436 29.0509V40.6714H234.793V13.5957H243.436V21.3814Z" fill="#555555"/>
<path d="M165.764 2.20819C166.593 4.29987 165.172 7.20499 162.567 8.71566C159.962 10.2263 157.239 9.7615 156.41 7.66981C155.581 5.57813 157.002 2.67301 159.607 1.16235C162.212 -0.348317 164.935 0.116502 165.764 2.20819Z" fill="#555555"/>
<path d="M89.5127 23.4734C89.5127 16.1525 84.4214 13.1312 79.4485 13.1312C76.0148 13.1312 73.2915 14.5256 70.6866 17.6632H70.5682V0.697266H61.9248V40.5555H70.5682V23.4734C72.5811 20.5683 74.3571 19.4062 76.37 19.4062C79.0932 19.4062 80.8693 21.2655 80.8693 25.3327V34.8615C83.8294 33.3508 86.671 32.5374 89.5127 32.1888V23.4734Z" fill="#555555"/>
<path d="M111.18 13.1309C107.628 13.1309 105.023 14.4091 102.182 17.5466V13.7119H93.5383V32.0722C96.4984 32.4209 100.406 33.6991 102.182 35.907V23.2407C104.431 19.8707 106.089 18.8249 108.22 18.8249C110.707 18.8249 112.483 20.4518 112.483 24.1703V40.5552H121.126V23.4731C121.245 15.455 115.561 13.1309 111.18 13.1309Z" fill="#555555"/>
<path d="M125.981 48.3411H115.916V55.3134H125.626V58.3348H115.916V65.5395H126.336V68.5608H112.601V45.3198H125.981V48.3411Z" fill="#555555"/>
<path d="M134.269 68.5608H137.347V45.3198H134.269V68.5608Z" fill="#555555"/>
<path d="M152.503 55.5458C154.634 55.5458 156.055 57.0564 156.173 59.3805H148.359C148.832 56.9402 150.253 55.5458 152.503 55.5458ZM148.24 61.356H159.252C159.252 55.662 156.647 52.9893 152.503 52.9893C148.24 52.9893 145.28 56.1268 145.28 60.775C145.28 65.0746 148.004 68.9093 152.858 68.9093C155.463 68.9093 157.239 68.3283 159.134 67.05V64.1449C157.357 65.307 155.581 66.0042 153.687 66.0042C150.49 66.0042 148.832 64.3773 148.24 61.356Z" fill="#555555"/>
<path d="M179.38 57.2893C177.604 56.1273 176.42 55.7787 175.118 55.7787C172.276 55.7787 170.382 57.8704 170.382 61.0079C170.382 64.1454 172.513 66.1209 175.71 66.1209C177.012 66.1209 178.315 65.7723 179.854 65.075V68.0964C178.788 68.5612 176.894 69.026 175.236 69.026C170.619 69.026 167.303 65.8885 167.303 61.3565C167.303 56.2435 170.263 53.106 175 53.106C176.776 53.106 178.078 53.5708 179.499 54.1518V57.2893" fill="#555555"/>
<path d="M193.352 53.222H198.325V55.8947H193.352V63.7966C193.352 65.6559 194.654 66.1207 195.602 66.1207C196.667 66.1207 197.851 65.7721 199.154 64.9587V67.7476C198.088 68.3286 196.43 68.7934 195.365 68.7934C192.05 68.7934 190.273 66.7017 190.273 64.029V55.8947H187.55V55.5461L193.352 49.9683V53.222Z" fill="#555555"/>
<path d="M210.165 53.2217V56.824H210.284C211.823 54.1513 213.362 52.9893 214.783 52.9893C216.085 52.9893 217.269 53.5703 218.453 54.7323L216.796 57.405C215.849 56.4754 214.664 55.8944 213.954 55.8944C211.823 55.8944 210.165 57.9861 210.165 60.6588V68.5607H207.087V53.2217H210.165Z" fill="#555555"/>
<path d="M249.949 57.2893C248.173 56.1273 246.988 55.7787 245.686 55.7787C242.844 55.7787 240.95 57.8704 240.95 61.0079C240.95 64.1454 243.081 66.1209 246.278 66.1209C247.581 66.1209 248.883 65.7723 250.422 65.075V68.0964C249.357 68.5612 247.344 69.026 245.804 69.026C241.187 69.026 237.871 65.8885 237.871 61.3565C237.871 56.2435 240.832 53.106 245.568 53.106C247.344 53.106 248.528 53.5708 250.067 54.1518V57.2893" fill="#555555"/>
<path d="M226.623 68.5607H229.702V53.2217H226.623V68.5607Z" fill="#555555"/>
<path d="M229.702 47.7601C230.057 48.4573 229.465 49.5032 228.518 50.0842C227.571 50.6652 226.623 50.4328 226.268 49.7356C226.031 49.0383 226.505 47.9925 227.452 47.4115C228.518 46.8305 229.465 46.9467 229.702 47.7601Z" fill="#555555"/>
<path d="M91.8807 48.9217C91.2887 48.9217 91.0518 49.0379 90.9334 49.2703C90.815 49.3865 90.815 49.5027 90.815 49.6189L88.0918 59.8449C87.4997 63.4473 82.882 67.0496 77.0803 67.0496H68.9105L70.3313 61.8204H75.5411C76.1331 61.8204 76.4883 61.588 76.8435 61.2394C76.9619 61.1232 77.1987 60.8908 77.1987 60.6584L79.3299 51.7106C79.922 48.1083 83.8293 44.1573 89.7494 44.1573H98.156L97.0904 49.0379H91.8807V48.9217ZM93.7751 55.1968L94.7223 51.8268H103.247C104.313 47.0624 103.484 42.5304 100.524 39.6253C94.4855 33.6989 81.8164 35.6744 72.4626 44.5059C71.0417 45.9004 69.7393 47.411 68.6737 48.9217H73.765L72.581 52.2916H66.424C65.832 53.3375 65.24 54.3833 64.8848 55.4292H72.1074L70.9233 58.7991H63.8191C62.6351 63.9121 63.3455 68.6765 66.424 71.6978C72.3442 77.5081 85.0133 75.5326 94.3671 66.701C96.0248 65.1904 97.3272 63.5635 98.6296 61.8204H91.9991L92.9463 58.4505H100.642C101.234 57.4046 101.708 56.3588 102.182 55.313H93.7751V55.1968Z" fill="#555555"/>
</svg>
