<svg width="97" height="96" viewBox="0 0 97 96" fill="none" xmlns="http://www.w3.org/2000/svg">
<path fill-rule="evenodd" clip-rule="evenodd" d="M47.4924 4.27144C48.1151 3.90822 48.8851 3.90822 49.5078 4.27144L59.7941 10.2714C60.7482 10.828 61.0705 12.0526 60.514 13.0067C59.9574 13.9608 58.7328 14.2831 57.7787 13.7266L48.5001 8.3144L39.2216 13.7266C38.2675 14.2831 37.0428 13.9608 36.4863 13.0067C35.9298 12.0526 36.2521 10.828 37.2062 10.2714L47.4924 4.27144Z" fill="white"/>
<path fill-rule="evenodd" clip-rule="evenodd" d="M48.4998 3.99902C49.6043 3.99902 50.4998 4.89445 50.4998 5.99902V20.999C50.4998 22.1036 49.6043 22.999 48.4998 22.999C47.3952 22.999 46.4998 22.1036 46.4998 20.999V5.99902C46.4998 4.89445 47.3952 3.99902 48.4998 3.99902Z" fill="white"/>
<path fill-rule="evenodd" clip-rule="evenodd" d="M36.4863 82.9912C37.0428 82.037 38.2675 81.7147 39.2216 82.2713L48.5001 87.6835L57.7787 82.2713C58.7328 81.7147 59.9574 82.037 60.514 82.9912C61.0705 83.9453 60.7482 85.1699 59.7941 85.7264L49.5078 91.7264C48.8851 92.0897 48.1151 92.0897 47.4924 91.7264L37.2062 85.7264C36.2521 85.1699 35.9298 83.9453 36.4863 82.9912Z" fill="white"/>
<path fill-rule="evenodd" clip-rule="evenodd" d="M48.4998 72.999C49.6043 72.999 50.4998 73.8945 50.4998 74.999V89.999C50.4998 91.1036 49.6043 91.999 48.4998 91.999C47.3952 91.999 46.4998 91.1036 46.4998 89.999V74.999C46.4998 73.8945 47.3952 72.999 48.4998 72.999Z" fill="white"/>
<path fill-rule="evenodd" clip-rule="evenodd" d="M24.1858 20.0707C24.7491 21.0209 24.4355 22.2477 23.4853 22.811L14.4998 28.1381V38.9069C14.4998 40.0115 13.6043 40.9069 12.4998 40.9069C11.3952 40.9069 10.4998 40.0115 10.4998 38.9069V26.9988C10.4998 26.2925 10.8723 25.6386 11.4798 25.2784L21.4454 19.3703C22.3956 18.807 23.6225 19.1206 24.1858 20.0707Z" fill="white"/>
<path fill-rule="evenodd" clip-rule="evenodd" d="M10.7806 25.9769C11.345 25.0274 12.5722 24.7152 13.5217 25.2797L26.1386 32.7797C27.0881 33.3441 27.4002 34.5713 26.8358 35.5208C26.2714 36.4703 25.0442 36.7824 24.0947 36.218L11.4778 28.718C10.5283 28.1536 10.2162 26.9264 10.7806 25.9769Z" fill="white"/>
<path fill-rule="evenodd" clip-rule="evenodd" d="M84.5001 55.0908C85.6046 55.0908 86.5001 55.9863 86.5001 57.0908V68.9989C86.5001 69.7052 86.1275 70.3592 85.52 70.7193L75.5544 76.6275C74.6042 77.1908 73.3773 76.8772 72.814 75.927C72.2507 74.9769 72.5644 73.75 73.5145 73.1867L82.5001 67.8596V57.0908C82.5001 55.9863 83.3955 55.0908 84.5001 55.0908Z" fill="white"/>
<path fill-rule="evenodd" clip-rule="evenodd" d="M70.1639 60.4769C70.7283 59.5274 71.9555 59.2152 72.905 59.7797L85.5219 67.2797C86.4714 67.8441 86.7835 69.0713 86.2191 70.0208C85.6547 70.9703 84.4275 71.2824 83.478 70.718L70.8611 63.218C69.9116 62.6536 69.5995 61.4264 70.1639 60.4769Z" fill="white"/>
<path fill-rule="evenodd" clip-rule="evenodd" d="M12.4998 55.0908C13.6043 55.0908 14.4998 55.9863 14.4998 57.0908V67.8686L23.497 73.2855C24.4433 73.8553 24.7485 75.0842 24.1788 76.0305C23.6091 76.9768 22.3801 77.2821 21.4338 76.7124L11.4682 70.7124C10.8672 70.3506 10.4998 69.7004 10.4998 68.9989V57.0908C10.4998 55.9863 11.3952 55.0908 12.4998 55.0908Z" fill="white"/>
<path fill-rule="evenodd" clip-rule="evenodd" d="M26.7096 60.4695C27.278 61.4166 26.9711 62.6452 26.024 63.2136L13.529 70.7136C12.582 71.2821 11.3534 70.9752 10.7849 70.0281C10.2165 69.0811 10.5234 67.8525 11.4705 67.284L23.9655 59.784C24.9125 59.2156 26.1411 59.5225 26.7096 60.4695Z" fill="white"/>
<path fill-rule="evenodd" clip-rule="evenodd" d="M72.814 20.0707C73.3773 19.1206 74.6042 18.807 75.5544 19.3703L85.52 25.2784C86.1275 25.6386 86.5001 26.2925 86.5001 26.9988V38.9069C86.5001 40.0115 85.6046 40.9069 84.5001 40.9069C83.3955 40.9069 82.5001 40.0115 82.5001 38.9069V28.1381L73.5145 22.811C72.5644 22.2477 72.2507 21.0209 72.814 20.0707Z" fill="white"/>
<path fill-rule="evenodd" clip-rule="evenodd" d="M86.2193 25.9769C86.7837 26.9264 86.4716 28.1536 85.5221 28.718L72.9052 36.218C71.9557 36.7824 70.7285 36.4703 70.1641 35.5208C69.5997 34.5713 69.9118 33.3441 70.8613 32.7797L83.4782 25.2797C84.4277 24.7152 85.6549 25.0274 86.2193 25.9769ZM36.4863 40.9911C37.0428 40.037 38.2675 39.7147 39.2216 40.2713L48.5001 45.6835L57.7787 40.2713C58.7328 39.7147 59.9574 40.037 60.514 40.9911C61.0705 41.9453 60.7482 43.1699 59.7941 43.7264L50.5001 49.1476V59.9988C50.5001 61.1034 49.6047 61.9988 48.5001 61.9988C47.3956 61.9988 46.5001 61.1034 46.5001 59.9988V49.1476L37.2062 43.7264C36.2521 43.1699 35.9298 41.9453 36.4863 40.9911Z" fill="white"/>
</svg>
